<svg width="1462" height="300" viewBox="0 0 1462 300" fill="none" xmlns="http://www.w3.org/2000/svg">
<path d="M86.666 300L85.0877 298.799L96.7529 254.129L7.10284 164.479L6.82831 163.449L39.7995 40.4164L40.5544 39.6616L163.587 6.69043L164.617 6.9649L254.678 97.0266L254.953 98.0559L221.982 221.089L221.501 221.741L86.666 300ZM9.05839 163.415L98.7085 253.065L98.983 254.094L87.8325 296.878L220.095 220.162L252.791 98.1245L163.587 8.92053L41.7209 41.5829L9.05839 163.415Z" fill="white"/>
<path d="M175.287 176.384L69.0659 149.005L68.5855 147.221L146.673 68.7559L148.457 69.2362L176.591 175.08L175.287 176.384ZM71.3989 147.393L174.052 173.879L146.879 71.5692L71.3989 147.393Z" fill="white"/>
<path d="M98.7095 254.575L96.9255 254.094L39.9721 41.2398L41.2759 39.936L253.753 97.3697L254.233 99.1538L98.7095 254.575ZM42.511 42.4749L98.5037 251.761L251.42 98.9479L42.511 42.4749Z" fill="white"/>
<path d="M69.0513 146.881L7.60547 162.658L8.1345 164.718L69.5803 148.941L69.0513 146.881Z" fill="white"/>
<path d="M162.836 7.45544L146.358 69.2131L148.413 69.7615L164.891 8.00383L162.836 7.45544Z" fill="white"/>
<path d="M176.488 175.342L174.993 176.855L220.238 221.566L221.734 220.053L176.488 175.342Z" fill="white"/>
<path d="M8.06269 171.649C12.5156 171.649 16.1254 168.039 16.1254 163.587C16.1254 159.134 12.5156 155.524 8.06269 155.524C3.6098 155.524 0 159.134 0 163.587C0 168.039 3.6098 171.649 8.06269 171.649Z" fill="white"/>
<path d="M41.2394 49.4051C45.6923 49.4051 49.3021 45.7953 49.3021 41.3425C49.3021 36.8896 45.6923 33.2798 41.2394 33.2798C36.7865 33.2798 33.1767 36.8896 33.1767 41.3425C33.1767 45.7953 36.7865 49.4051 41.2394 49.4051Z" fill="white"/>
<path d="M164.032 16.1253C168.485 16.1253 172.095 12.5156 172.095 8.06267C172.095 3.60978 168.485 0 164.032 0C159.579 0 155.97 3.60978 155.97 8.06267C155.97 12.5156 159.579 16.1253 164.032 16.1253Z" fill="white"/>
<path d="M252.928 106.324C257.381 106.324 260.991 102.715 260.991 98.2616C260.991 93.8087 257.381 90.199 252.928 90.199C248.475 90.199 244.865 93.8087 244.865 98.2616C244.865 102.715 248.475 106.324 252.928 106.324Z" fill="white"/>
<path d="M221.055 228.911C225.508 228.911 229.117 225.302 229.117 220.849C229.117 216.396 225.508 212.786 221.055 212.786C216.602 212.786 212.992 216.396 212.992 220.849C212.992 225.302 216.602 228.911 221.055 228.911Z" fill="white"/>
<path d="M175.046 182.628C179.498 182.628 183.108 179.018 183.108 174.566C183.108 170.113 179.498 166.503 175.046 166.503C170.593 166.503 166.983 170.113 166.983 174.566C166.983 179.018 170.593 182.628 175.046 182.628Z" fill="white"/>
<path d="M98.0222 261.162C102.475 261.162 106.085 257.552 106.085 253.099C106.085 248.646 102.475 245.037 98.0222 245.037C93.5693 245.037 89.9595 248.646 89.9595 253.099C89.9595 257.552 93.5693 261.162 98.0222 261.162Z" fill="white"/>
<path d="M70.1627 155.97C74.6156 155.97 78.2253 152.36 78.2253 147.907C78.2253 143.454 74.6156 139.844 70.1627 139.844C65.7098 139.844 62.1 143.454 62.1 147.907C62.1 152.36 65.7098 155.97 70.1627 155.97Z" fill="white"/>
<path d="M147.392 78.1222C151.845 78.1222 155.455 74.5124 155.455 70.0595C155.455 65.6066 151.845 61.9968 147.392 61.9968C142.939 61.9968 139.329 65.6066 139.329 70.0595C139.329 74.5124 142.939 78.1222 147.392 78.1222Z" fill="white"/>
<path d="M1346.98 72.7351L1320.25 21.2551H1267.96L1320.97 119.085L1346.98 72.7351Z" fill="white"/>
<path d="M1386.85 144.825L1454.44 21.2551H1406.83L1363 103.425L1325.02 170.745L1264.36 280.005H1312.78L1361.65 186.315L1407.82 280.005H1461.91L1386.85 144.825Z" fill="white"/>
<path d="M356.711 280.005V63.1952H292.991V20.2651H469.841V63.1952H406.031V280.005H356.711Z" fill="white"/>
<path d="M356.711 280.005V63.1952H292.991V20.2651H469.841V63.1952H406.031V280.005H356.711Z" fill="white"/>
<path d="M933.161 280.005V20.2651H985.271L1059.88 150.675C1065.55 160.755 1070.86 171.015 1075.72 181.365C1080.58 191.715 1085.08 202.155 1089.13 212.775C1087.87 205.125 1086.88 196.845 1086.34 188.115C1085.8 179.295 1085.44 169.935 1085.44 159.945V20.2651H1130.8V279.915H1085.44L1004.35 145.995C999.941 138.435 995.261 129.345 990.311 118.815C985.361 108.195 980.321 96.4951 975.011 83.6251C976.181 90.7351 976.991 98.4751 977.531 107.025C978.071 115.485 978.341 125.295 978.341 136.455V280.005H933.161Z" fill="white"/>
<path d="M1174.45 280.005V20.2651H1223.59V279.915H1174.45V280.005Z" fill="white"/>
<path d="M562.091 235.725V193.515V165.435H649.391V123.855H562.091V62.5652L678.461 62.4752V20.2651H562.091H513.401V62.5652V123.675V193.515V280.005H685.931V235.725H562.091Z" fill="white"/>
<path d="M767.561 97.6652V19.9951H721.481V181.275L767.561 97.6652Z" fill="white"/>
<path d="M820.571 144.195L888.521 19.9951H840.641L796.631 102.615V102.525L767.561 154.185V153.645L721.481 237.255V280.005H767.561V239.055L795.281 185.865L841.721 280.005H895.991L820.571 144.195Z" fill="white"/>
</svg>
