<svg width="1739" height="486" viewBox="0 0 1739 486" fill="none" xmlns="http://www.w3.org/2000/svg">
<path d="M140.398 486L137.841 484.055L156.738 411.688L11.5608 266.455L11.1162 264.788L64.5295 65.4745L65.7523 64.2517L265.066 10.8384L266.733 11.283L412.633 157.183L413.078 158.85L359.664 358.164L358.886 359.22L140.398 486ZM14.6734 264.732L159.906 409.965L160.351 411.633L142.287 480.942L356.552 356.663L409.521 158.962L265.01 14.4511L67.5865 67.3642L14.6734 264.732Z" fill="#587BBD"/>
<path d="M283.963 285.742L111.884 241.388L111.106 238.442L237.608 111.329L240.498 112.107L286.075 283.574L283.963 285.742ZM115.663 238.776L281.962 281.684L237.941 115.942L115.663 238.776Z" fill="#587BBD"/>
<path d="M159.904 412.411L157.014 411.633L64.7493 66.8082L66.8614 64.6962L411.074 157.739L411.852 160.629L159.904 412.411ZM68.8623 68.8092L159.57 407.853L407.295 160.295L68.8623 68.8092Z" fill="#587BBD"/>
<path d="M111.903 237.986L12.361 263.545L13.218 266.883L112.76 241.324L111.903 237.986Z" fill="#587BBD"/>
<path d="M263.826 12.0939L237.131 112.141L240.461 113.03L267.155 12.9823L263.826 12.0939Z" fill="#587BBD"/>
<path d="M285.951 284.115L283.529 286.566L356.826 358.998L359.248 356.547L285.951 284.115Z" fill="#587BBD"/>
<path d="M13.0616 278.072C20.2753 278.072 26.1232 272.224 26.1232 265.01C26.1232 257.796 20.2753 251.949 13.0616 251.949C5.84796 251.949 0.00012207 257.796 0.00012207 265.01C0.00012207 272.224 5.84796 278.072 13.0616 278.072Z" fill="#587BBD"/>
<path d="M66.8078 80.0366C74.0214 80.0366 79.8693 74.1888 79.8693 66.9751C79.8693 59.7614 74.0214 53.9136 66.8078 53.9136C59.5941 53.9136 53.7462 59.7614 53.7462 66.9751C53.7462 74.1888 59.5941 80.0366 66.8078 80.0366Z" fill="#587BBD"/>
<path d="M265.732 26.1231C272.946 26.1231 278.794 20.2752 278.794 13.0615C278.794 5.84785 272.946 0 265.732 0C258.519 0 252.671 5.84785 252.671 13.0615C252.671 20.2752 258.519 26.1231 265.732 26.1231Z" fill="#587BBD"/>
<path d="M409.744 172.245C416.957 172.245 422.805 166.397 422.805 159.184C422.805 151.97 416.957 146.122 409.744 146.122C402.53 146.122 396.682 151.97 396.682 159.184C396.682 166.397 402.53 172.245 409.744 172.245Z" fill="#587BBD"/>
<path d="M358.109 370.836C365.322 370.836 371.17 364.988 371.17 357.775C371.17 350.561 365.322 344.713 358.109 344.713C350.895 344.713 345.047 350.561 345.047 357.775C345.047 364.988 350.895 370.836 358.109 370.836Z" fill="#587BBD"/>
<path d="M283.574 295.858C290.787 295.858 296.635 290.01 296.635 282.796C296.635 275.582 290.787 269.735 283.574 269.735C276.36 269.735 270.512 275.582 270.512 282.796C270.512 290.01 276.36 295.858 283.574 295.858Z" fill="#587BBD"/>
<path d="M158.796 423.082C166.01 423.082 171.858 417.234 171.858 410.021C171.858 402.807 166.01 396.959 158.796 396.959C151.582 396.959 145.734 402.807 145.734 410.021C145.734 417.234 151.582 423.082 158.796 423.082Z" fill="#587BBD"/>
<path d="M113.664 252.671C120.877 252.671 126.725 246.823 126.725 239.61C126.725 232.396 120.877 226.548 113.664 226.548C106.45 226.548 100.602 232.396 100.602 239.61C100.602 246.823 106.45 252.671 113.664 252.671Z" fill="#587BBD"/>
<path d="M238.775 126.558C245.989 126.558 251.837 120.71 251.837 113.496C251.837 106.283 245.989 100.435 238.775 100.435C231.561 100.435 225.714 106.283 225.714 113.496C225.714 120.71 231.561 126.558 238.775 126.558Z" fill="#587BBD"/>
<path d="M513.612 372.73V155.928H449.805V113H626.738V155.928H562.931V372.73H513.612Z" fill="#587BBD"/>
<path d="M718.225 328.452V286.243V258.164H805.611V216.586H718.225V155.298L834.59 155.208V113H718.225H669.536V155.298V216.406V286.243V372.73H842.06V328.452H718.225Z" fill="#587BBD"/>
<path d="M930.936 190.667V113H884.858V274.274L930.936 190.667Z" fill="#587BBD"/>
<path d="M983.944 237.195L1051.89 113H1004.01L960.095 195.617L960.005 195.527L930.936 247.185V246.645L884.858 330.252V373H930.936V332.052L958.655 278.864L1005.09 373H1059.36L983.944 237.195Z" fill="#587BBD"/>
<path d="M1102.16 372.73V113H1154.27L1228.87 243.405C1234.54 253.485 1239.85 263.744 1244.71 274.094C1249.57 284.443 1254.07 294.883 1258.12 305.503C1256.86 297.853 1255.87 289.573 1255.33 280.844C1254.79 272.024 1254.43 262.664 1254.43 252.675V113H1299.79V372.64H1254.43L1173.35 238.725C1168.94 231.165 1164.26 222.076 1159.31 211.546C1154.36 200.927 1149.32 189.227 1144.01 176.358C1145.18 183.467 1145.99 191.207 1146.53 199.757C1147.07 208.216 1147.34 218.026 1147.34 229.186V372.73H1102.16Z" fill="#46B97C"/>
<path d="M1342.59 372.73V113H1391.73V372.64H1342.59V372.73Z" fill="#46B97C"/>
<path d="M1517.14 164.478L1490.5 113H1438.22L1491.13 210.826L1517.14 164.478Z" fill="#46B97C"/>
<path d="M1557.01 236.565L1624.6 113H1576.99L1533.25 195.167H1533.16L1495.18 262.484L1434.53 371.74H1483.04L1531.81 278.054L1578.07 371.74H1632.07L1557.01 236.565Z" fill="#46B97C"/>
</svg>
