<svg width="1624" height="486" viewBox="0 0 1624 486" fill="none" xmlns="http://www.w3.org/2000/svg">
<path d="M140.399 486L137.842 484.055L156.74 411.688L11.5067 266.455L11.062 264.788L64.4754 65.4745L65.6981 64.2517L265.011 10.8384L266.679 11.283L412.579 157.183L413.024 158.85L359.61 358.164L358.832 359.22L140.399 486ZM14.6747 264.732L159.908 409.965L160.353 411.633L142.289 480.942L356.553 356.663L409.522 158.962L265.011 14.4511L67.5879 67.3642L14.6747 264.732Z" fill="white"/>
<path d="M283.965 285.742L111.887 241.388L111.109 238.498L237.611 111.384L240.501 112.162L286.078 283.63L283.965 285.742ZM115.666 238.776L281.965 281.684L237.944 115.942L115.666 238.776Z" fill="white"/>
<path d="M159.909 412.411L157.019 411.633L64.7549 66.8082L66.867 64.6962L411.08 157.739L411.858 160.629L159.909 412.411ZM68.8678 68.8092L159.576 407.853L407.3 160.295L68.8678 68.8092Z" fill="white"/>
<path d="M111.863 237.947L12.321 263.505L13.178 266.843L112.72 241.285L111.863 237.947Z" fill="white"/>
<path d="M263.794 12.0779L237.1 112.125L240.429 113.014L267.124 12.9663L263.794 12.0779Z" fill="white"/>
<path d="M285.911 284.054L283.489 286.505L356.786 358.937L359.208 356.486L285.911 284.054Z" fill="white"/>
<path d="M13.0616 278.072C20.2752 278.072 26.1231 272.224 26.1231 265.01C26.1231 257.796 20.2752 251.949 13.0616 251.949C5.84788 251.949 0 257.796 0 265.01C0 272.224 5.84788 278.072 13.0616 278.072Z" fill="white"/>
<path d="M66.8079 80.0366C74.0216 80.0366 79.8695 74.1888 79.8695 66.9751C79.8695 59.7614 74.0216 53.9136 66.8079 53.9136C59.5942 53.9136 53.7463 59.7614 53.7463 66.9751C53.7463 74.1888 59.5942 80.0366 66.8079 80.0366Z" fill="white"/>
<path d="M265.732 26.1231C272.946 26.1231 278.794 20.2752 278.794 13.0615C278.794 5.84785 272.946 0 265.732 0C258.519 0 252.671 5.84785 252.671 13.0615C252.671 20.2752 258.519 26.1231 265.732 26.1231Z" fill="white"/>
<path d="M409.744 172.245C416.957 172.245 422.805 166.398 422.805 159.184C422.805 151.97 416.957 146.122 409.744 146.122C402.53 146.122 396.682 151.97 396.682 159.184C396.682 166.398 402.53 172.245 409.744 172.245Z" fill="white"/>
<path d="M358.109 370.836C365.322 370.836 371.17 364.989 371.17 357.775C371.17 350.561 365.322 344.713 358.109 344.713C350.895 344.713 345.047 350.561 345.047 357.775C345.047 364.989 350.895 370.836 358.109 370.836Z" fill="white"/>
<path d="M283.574 295.858C290.787 295.858 296.635 290.01 296.635 282.796C296.635 275.582 290.787 269.735 283.574 269.735C276.36 269.735 270.512 275.582 270.512 282.796C270.512 290.01 276.36 295.858 283.574 295.858Z" fill="white"/>
<path d="M158.796 423.082C166.01 423.082 171.857 417.234 171.857 410.021C171.857 402.807 166.01 396.959 158.796 396.959C151.582 396.959 145.734 402.807 145.734 410.021C145.734 417.234 151.582 423.082 158.796 423.082Z" fill="white"/>
<path d="M113.664 252.671C120.877 252.671 126.725 246.823 126.725 239.61C126.725 232.396 120.877 226.548 113.664 226.548C106.45 226.548 100.602 232.396 100.602 239.61C100.602 246.823 106.45 252.671 113.664 252.671Z" fill="white"/>
<path d="M238.775 126.558C245.989 126.558 251.837 120.71 251.837 113.496C251.837 106.283 245.989 100.435 238.775 100.435C231.561 100.435 225.714 106.283 225.714 113.496C225.714 120.71 231.561 126.558 238.775 126.558Z" fill="white"/>
<path d="M1508.8 165.735L1482.07 114.255H1429.78L1482.79 212.085L1508.8 165.735Z" fill="white"/>
<path d="M1548.67 237.825L1616.26 114.255H1568.65L1524.82 196.425L1486.84 263.745L1426.18 373.005H1474.6L1523.47 279.315L1569.64 373.005H1623.73L1548.67 237.825Z" fill="white"/>
<path d="M518.525 373.005V156.195H454.805V113.265H631.655V156.195H567.845V373.005H518.525Z" fill="white"/>
<path d="M518.525 373.005V156.195H454.805V113.265H631.655V156.195H567.845V373.005H518.525Z" fill="white"/>
<path d="M1094.98 373.005V113.265H1147.09L1221.7 243.675C1227.37 253.755 1232.68 264.015 1237.54 274.365C1242.4 284.715 1246.9 295.155 1250.95 305.775C1249.69 298.125 1248.7 289.845 1248.16 281.115C1247.62 272.295 1247.26 262.935 1247.26 252.945V113.265H1292.62V372.915H1247.26L1166.17 238.995C1161.76 231.435 1157.08 222.345 1152.13 211.815C1147.18 201.195 1142.14 189.495 1136.83 176.625C1138 183.735 1138.81 191.475 1139.35 200.025C1139.89 208.485 1140.16 218.295 1140.16 229.455V373.005H1094.98Z" fill="white"/>
<path d="M1336.27 373.005V113.265H1385.41V372.915H1336.27V373.005Z" fill="white"/>
<path d="M723.905 328.725V286.515V258.435H811.205V216.855H723.905V155.565L840.275 155.475V113.265H723.905H675.215V155.565V216.675V286.515V373.005H847.745V328.725H723.905Z" fill="white"/>
<path d="M929.375 190.665V112.995H883.295V274.275L929.375 190.665Z" fill="white"/>
<path d="M982.385 237.195L1050.34 112.995H1002.46L958.445 195.615V195.525L929.375 247.185V246.645L883.295 330.255V373.005H929.375V332.055L957.095 278.865L1003.54 373.005H1057.81L982.385 237.195Z" fill="white"/>
</svg>
