<svg width="1739" height="494" viewBox="0 0 1739 494" fill="none" xmlns="http://www.w3.org/2000/svg">
<path d="M140.398 486L137.841 484.055L156.738 411.688L11.5608 266.455L11.1162 264.788L64.5295 65.4745L65.7523 64.2517L265.066 10.8384L266.733 11.283L412.633 157.183L413.078 158.85L359.664 358.164L358.886 359.22L140.398 486ZM14.6734 264.732L159.906 409.965L160.351 411.633L142.287 480.942L356.552 356.663L409.521 158.962L265.01 14.4511L67.5865 67.3642L14.6734 264.732Z" fill="#587BBD"/>
<path d="M283.963 285.742L111.884 241.388L111.106 238.442L237.608 111.329L240.498 112.107L286.075 283.574L283.963 285.742ZM115.663 238.776L281.962 281.684L237.941 115.942L115.663 238.776Z" fill="#587BBD"/>
<path d="M159.904 412.411L157.014 411.633L64.7493 66.8082L66.8614 64.6962L411.074 157.739L411.852 160.629L159.904 412.411ZM68.8623 68.8092L159.57 407.853L407.295 160.295L68.8623 68.8092Z" fill="#587BBD"/>
<path d="M111.903 237.986L12.361 263.545L13.218 266.883L112.76 241.324L111.903 237.986Z" fill="#587BBD"/>
<path d="M263.826 12.0939L237.131 112.141L240.461 113.03L267.155 12.9823L263.826 12.0939Z" fill="#587BBD"/>
<path d="M285.951 284.115L283.529 286.566L356.826 358.998L359.248 356.547L285.951 284.115Z" fill="#587BBD"/>
<path d="M13.0616 278.072C20.2753 278.072 26.1232 272.224 26.1232 265.01C26.1232 257.796 20.2753 251.949 13.0616 251.949C5.84796 251.949 0.00012207 257.796 0.00012207 265.01C0.00012207 272.224 5.84796 278.072 13.0616 278.072Z" fill="#587BBD"/>
<path d="M66.8078 80.0366C74.0214 80.0366 79.8693 74.1888 79.8693 66.9751C79.8693 59.7614 74.0214 53.9136 66.8078 53.9136C59.5941 53.9136 53.7462 59.7614 53.7462 66.9751C53.7462 74.1888 59.5941 80.0366 66.8078 80.0366Z" fill="#587BBD"/>
<path d="M265.732 26.1231C272.946 26.1231 278.794 20.2752 278.794 13.0615C278.794 5.84785 272.946 0 265.732 0C258.519 0 252.671 5.84785 252.671 13.0615C252.671 20.2752 258.519 26.1231 265.732 26.1231Z" fill="#587BBD"/>
<path d="M409.744 172.245C416.957 172.245 422.805 166.397 422.805 159.184C422.805 151.97 416.957 146.122 409.744 146.122C402.53 146.122 396.682 151.97 396.682 159.184C396.682 166.397 402.53 172.245 409.744 172.245Z" fill="#587BBD"/>
<path d="M358.109 370.836C365.322 370.836 371.17 364.988 371.17 357.775C371.17 350.561 365.322 344.713 358.109 344.713C350.895 344.713 345.047 350.561 345.047 357.775C345.047 364.988 350.895 370.836 358.109 370.836Z" fill="#587BBD"/>
<path d="M283.574 295.858C290.787 295.858 296.635 290.01 296.635 282.796C296.635 275.582 290.787 269.735 283.574 269.735C276.36 269.735 270.512 275.582 270.512 282.796C270.512 290.01 276.36 295.858 283.574 295.858Z" fill="#587BBD"/>
<path d="M158.796 423.082C166.01 423.082 171.858 417.234 171.858 410.021C171.858 402.807 166.01 396.959 158.796 396.959C151.582 396.959 145.734 402.807 145.734 410.021C145.734 417.234 151.582 423.082 158.796 423.082Z" fill="#587BBD"/>
<path d="M113.664 252.671C120.877 252.671 126.725 246.823 126.725 239.61C126.725 232.396 120.877 226.548 113.664 226.548C106.45 226.548 100.602 232.396 100.602 239.61C100.602 246.823 106.45 252.671 113.664 252.671Z" fill="#587BBD"/>
<path d="M238.775 126.558C245.989 126.558 251.837 120.71 251.837 113.496C251.837 106.283 245.989 100.435 238.775 100.435C231.561 100.435 225.714 106.283 225.714 113.496C225.714 120.71 231.561 126.558 238.775 126.558Z" fill="#587BBD"/>
<path d="M513.615 259.74V42.93H449.805V0H626.745V42.93H562.935V259.74H513.615Z" fill="#587BBD"/>
<path d="M739.443 215.46V173.25V145.17H826.833V103.59H739.443V42.3L855.813 42.21V0H739.443H690.753V42.3V103.41V173.25V259.74H863.283V215.46H739.443Z" fill="#587BBD"/>
<path d="M973.371 77.67V0H927.291V161.28L973.371 77.67Z" fill="#587BBD"/>
<path d="M1026.38 124.2L1094.33 0H1046.45L1002.53 82.62L1002.44 82.53L973.371 134.19V133.65L927.291 217.26V260.01H973.371V219.06L1001.09 165.87L1047.53 260.01H1101.8L1026.38 124.2Z" fill="#587BBD"/>
<path d="M1165.81 259.74V0H1217.92L1292.53 130.41C1298.2 140.49 1303.51 150.75 1308.37 161.1C1313.23 171.45 1317.73 181.89 1321.78 192.51C1320.52 184.86 1319.53 176.58 1318.99 167.85C1318.45 159.03 1318.09 149.67 1318.09 139.68V0H1363.45V259.65H1318.09L1237 125.73C1232.59 118.17 1227.91 109.08 1222.96 98.55C1218.01 87.93 1212.97 76.23 1207.66 63.36C1208.83 70.47 1209.64 78.21 1210.18 86.76C1210.72 95.22 1210.99 105.03 1210.99 116.19V259.74H1165.81Z" fill="#46B97C"/>
<path d="M1427.46 259.74V0H1476.6V259.65H1427.46V259.74Z" fill="#46B97C"/>
<path d="M1623.22 51.48L1596.58 0H1544.29L1597.21 97.83L1623.22 51.48Z" fill="#46B97C"/>
<path d="M1663.09 123.57L1730.68 0H1683.07L1639.33 82.17H1639.24L1601.26 149.49L1540.6 258.75H1589.11L1637.89 165.06L1684.16 258.75H1738.16L1663.09 123.57Z" fill="#46B97C"/>
<path d="M1631.59 464.49H544.213C529.543 464.49 517.753 452.61 517.753 438.03V381.6C517.753 366.93 529.633 355.14 544.213 355.14H1631.59C1646.26 355.14 1658.05 367.02 1658.05 381.6V438.03C1658.14 452.61 1646.26 464.49 1631.59 464.49Z" fill="#8DB861"/>
<path d="M567.165 439.38V369.72H573.465V439.38H567.165Z" fill="white"/>
<path d="M607.485 439.38V397.17H613.065V403.74C616.485 398.34 621.435 395.64 628.005 395.64C637.635 395.64 643.215 401.13 643.215 410.76V439.38H637.275V413.37C637.275 405.09 633.675 400.86 626.475 400.86C617.835 400.86 613.425 406.35 613.425 417.33V439.38H607.485Z" fill="white"/>
<path d="M675.705 439.38V397.17H681.285V403.74C684.705 398.34 689.655 395.64 696.225 395.64C705.855 395.64 711.435 401.13 711.435 410.76V439.38H705.495V413.37C705.495 405.09 701.895 400.86 694.695 400.86C686.055 400.86 681.645 406.35 681.645 417.33V439.38H675.705Z" fill="white"/>
<path d="M747.075 434.34C742.665 430.02 740.505 424.71 740.505 418.32C740.505 411.93 742.665 406.62 747.075 402.21C751.485 397.8 756.885 395.55 763.275 395.55C769.575 395.55 775.065 397.8 779.565 402.21C784.155 406.62 786.405 411.93 786.405 418.32C786.405 424.71 784.155 430.11 779.565 434.61C775.065 439.02 769.665 441.27 763.275 441.27C757.065 441.27 751.755 438.93 747.075 434.34ZM775.335 430.74C778.485 427.32 780.015 423.27 780.015 418.5C780.015 413.64 778.485 409.5 775.425 406.26C772.185 402.84 768.225 401.22 763.455 401.22C758.685 401.22 754.725 402.84 751.575 406.26C748.425 409.59 746.895 413.64 746.895 418.5C746.895 423.27 748.425 427.41 751.575 430.74C754.815 434.16 758.685 435.78 763.455 435.78C768.225 435.78 772.185 434.16 775.335 430.74Z" fill="white"/>
<path d="M809.625 397.17H816.015L828.975 429.12L841.845 397.17H848.415L829.065 442.08L809.625 397.17Z" fill="white"/>
<path d="M906.195 439.38V431.64C903.405 437.94 898.365 441.18 891.345 441.18C885.045 441.18 879.915 438.93 876.225 434.43C872.805 430.2 871.185 424.98 871.185 418.41C871.185 412.11 872.805 406.71 876.045 402.57C879.645 397.89 884.595 395.55 890.715 395.55C898.005 395.55 903.225 398.7 906.105 404.82V397.17H911.955V439.38H906.195ZM891.975 435.78C896.835 435.78 900.525 433.89 903.045 430.11C905.205 426.87 906.285 422.82 906.285 417.6C906.285 412.83 905.115 408.96 902.865 405.9C900.345 402.57 896.745 400.95 892.065 400.95C887.205 400.95 883.515 402.84 881.085 406.44C878.835 409.59 877.755 413.64 877.755 418.68C877.755 430.11 882.525 435.78 891.975 435.78Z" fill="white"/>
<path d="M946.515 402.12H938.685V397.17H946.515V379.8H952.275V397.17H960.735V402.12H952.275V439.38H946.515V402.12Z" fill="white"/>
<path d="M1023.2 418.41H989.715C989.805 423.36 990.975 427.5 993.225 430.56C995.745 434.16 999.345 435.96 1004.12 435.96C1010.33 435.96 1015.01 432.54 1018.16 425.79L1023.56 428.67C1019.33 436.95 1012.94 441.18 1004.21 441.18C997.815 441.18 992.595 439.02 988.815 434.61C985.215 430.56 983.415 425.16 983.415 418.59C983.415 411.93 985.125 406.53 988.635 402.3C992.325 397.71 997.365 395.46 1003.94 395.46C1010.06 395.46 1014.92 397.53 1018.34 401.67C1021.58 405.54 1023.2 410.67 1023.2 416.97V418.41ZM1016.27 413.46C1015.64 405.36 1011.32 401.31 1003.13 401.31C995.835 401.31 990.885 406.17 990.075 413.46H1016.27Z" fill="white"/>
<path d="M1099.79 402.12H1091.96V397.17H1099.79V379.8H1105.55V397.17H1114.01V402.12H1105.55V439.38H1099.79V402.12Z" fill="white"/>
<path d="M1140.2 439.38V365.67H1145.78V403.74C1149.2 398.34 1154.15 395.64 1160.72 395.64C1170.35 395.64 1175.93 401.13 1175.93 410.76V439.38H1169.99V413.37C1169.99 405.09 1166.39 400.86 1159.19 400.86C1150.55 400.86 1146.14 406.35 1146.14 417.33V439.38H1140.2Z" fill="white"/>
<path d="M1244.69 418.41H1211.21C1211.3 423.36 1212.47 427.5 1214.72 430.56C1217.24 434.16 1220.84 435.96 1225.61 435.96C1231.82 435.96 1236.5 432.54 1239.65 425.79L1245.05 428.67C1240.82 436.95 1234.43 441.18 1225.7 441.18C1219.31 441.18 1214.09 439.02 1210.31 434.61C1206.71 430.56 1204.91 425.16 1204.91 418.59C1204.91 411.93 1206.62 406.53 1210.13 402.3C1213.82 397.71 1218.86 395.46 1225.43 395.46C1231.55 395.46 1236.41 397.53 1239.83 401.67C1243.07 405.54 1244.69 410.67 1244.69 416.97V418.41ZM1237.85 413.46C1237.22 405.36 1232.9 401.31 1224.71 401.31C1217.42 401.31 1212.47 406.17 1211.66 413.46H1237.85Z" fill="white"/>
<path d="M1321.37 439.38V402.12H1313.45V397.17H1321.37V385.02C1321.37 378.18 1321.73 373.68 1322.45 371.52C1323.89 367.02 1327.31 364.77 1332.44 364.77C1334.51 364.77 1336.31 365.04 1338.11 365.76L1337.03 370.89C1335.5 370.08 1334.15 369.72 1332.8 369.72C1330.19 369.72 1328.48 371.07 1327.76 373.95C1327.4 375.39 1327.22 377.82 1327.22 381.24V397.17H1336.49V402.12H1327.22V439.38H1321.37Z" fill="white"/>
<path d="M1368.62 397.17V418.23C1368.62 423.81 1369.34 427.86 1370.6 430.38C1372.31 433.98 1375.64 435.78 1380.59 435.78C1385.45 435.78 1388.87 433.89 1390.76 430.29C1392.02 427.68 1392.74 423.63 1392.74 418.23V397.17H1398.59V421.2C1398.59 434.52 1392.65 441.18 1380.77 441.18C1368.8 441.18 1362.86 434.52 1362.86 421.2V397.17H1368.62Z" fill="white"/>
<path d="M1432.97 402.12H1425.14V397.17H1432.97V379.8H1438.73V397.17H1447.19V402.12H1438.73V439.38H1432.97V402.12Z" fill="white"/>
<path d="M1479.23 397.17V418.23C1479.23 423.81 1479.95 427.86 1481.21 430.38C1482.92 433.98 1486.25 435.78 1491.2 435.78C1496.06 435.78 1499.48 433.89 1501.37 430.29C1502.63 427.68 1503.35 423.63 1503.35 418.23V397.17H1509.2V421.2C1509.2 434.52 1503.26 441.18 1491.38 441.18C1479.41 441.18 1473.47 434.52 1473.47 421.2V397.17H1479.23Z" fill="white"/>
<path d="M1548.08 405.63C1552.04 398.88 1556.54 395.55 1561.76 395.55C1563.29 395.55 1565 395.82 1566.71 396.45L1564.82 402.03C1563.38 401.58 1562.03 401.31 1560.86 401.31C1556.9 401.31 1553.66 403.29 1551.23 407.16C1549.16 410.49 1548.08 414.27 1548.08 418.59V439.38H1542.23V397.17H1548.08V405.63Z" fill="white"/>
<path d="M1626.65 418.41H1593.17C1593.26 423.36 1594.43 427.5 1596.68 430.56C1599.2 434.16 1602.8 435.96 1607.57 435.96C1613.78 435.96 1618.46 432.54 1621.61 425.79L1627.01 428.67C1622.78 436.95 1616.39 441.18 1607.66 441.18C1601.27 441.18 1596.05 439.02 1592.27 434.61C1588.67 430.56 1586.87 425.16 1586.87 418.59C1586.87 411.93 1588.58 406.53 1592.09 402.3C1595.78 397.71 1600.82 395.46 1607.39 395.46C1613.51 395.46 1618.37 397.53 1621.79 401.67C1625.03 405.54 1626.65 410.67 1626.65 416.97V418.41ZM1619.81 413.46C1619.18 405.36 1614.86 401.31 1606.67 401.31C1599.38 401.31 1594.43 406.17 1593.62 413.46H1619.81Z" fill="white"/>
<path d="M1683.34 493.02H504.615C474.375 493.02 449.805 468.45 449.805 438.21V368.82C449.805 338.58 474.375 314.01 504.615 314.01H1683.34C1713.58 314.01 1738.15 338.58 1738.15 368.82V438.21C1738.15 468.45 1713.58 493.02 1683.34 493.02Z" fill="#46B97C"/>
<path d="M564.107 439.38V369.72H570.407V439.38H564.107Z" fill="white"/>
<path d="M604.427 439.38V397.17H610.007V403.74C613.427 398.34 618.377 395.64 624.947 395.64C634.577 395.64 640.157 401.13 640.157 410.76V439.38H634.217V413.37C634.217 405.09 630.617 400.86 623.417 400.86C614.777 400.86 610.367 406.35 610.367 417.33V439.38H604.427Z" fill="white"/>
<path d="M672.647 439.38V397.17H678.227V403.74C681.647 398.34 686.597 395.64 693.167 395.64C702.797 395.64 708.377 401.13 708.377 410.76V439.38H702.437V413.37C702.437 405.09 698.837 400.86 691.637 400.86C682.997 400.86 678.587 406.35 678.587 417.33V439.38H672.647Z" fill="white"/>
<path d="M744.017 434.34C739.607 430.02 737.447 424.71 737.447 418.32C737.447 411.93 739.607 406.62 744.017 402.21C748.427 397.8 753.827 395.55 760.217 395.55C766.517 395.55 772.007 397.8 776.507 402.21C781.097 406.62 783.347 411.93 783.347 418.32C783.347 424.71 781.097 430.11 776.507 434.61C772.007 439.02 766.607 441.27 760.217 441.27C754.007 441.27 748.697 438.93 744.017 434.34ZM772.277 430.74C775.427 427.32 776.957 423.27 776.957 418.5C776.957 413.64 775.427 409.5 772.367 406.26C769.127 402.84 765.167 401.22 760.397 401.22C755.627 401.22 751.667 402.84 748.517 406.26C745.367 409.59 743.837 413.64 743.837 418.5C743.837 423.27 745.367 427.41 748.517 430.74C751.757 434.16 755.627 435.78 760.397 435.78C765.167 435.78 769.127 434.16 772.277 430.74Z" fill="white"/>
<path d="M806.567 397.17H812.957L825.917 429.12L838.787 397.17H845.357L826.007 442.08L806.567 397.17Z" fill="white"/>
<path d="M903.137 439.38V431.64C900.347 437.94 895.307 441.18 888.287 441.18C881.987 441.18 876.857 438.93 873.167 434.43C869.747 430.2 868.127 424.98 868.127 418.41C868.127 412.11 869.747 406.71 872.987 402.57C876.587 397.89 881.537 395.55 887.657 395.55C894.947 395.55 900.167 398.7 903.047 404.82V397.17H908.897V439.38H903.137ZM888.917 435.78C893.777 435.78 897.467 433.89 899.987 430.11C902.147 426.87 903.227 422.82 903.227 417.6C903.227 412.83 902.057 408.96 899.807 405.9C897.287 402.57 893.687 400.95 889.007 400.95C884.147 400.95 880.457 402.84 878.027 406.44C875.777 409.59 874.697 413.64 874.697 418.68C874.697 430.11 879.467 435.78 888.917 435.78Z" fill="white"/>
<path d="M943.457 402.12H935.627V397.17H943.457V379.8H949.217V397.17H957.677V402.12H949.217V439.38H943.457V402.12Z" fill="white"/>
<path d="M1020.14 418.41H986.657C986.747 423.36 987.917 427.5 990.167 430.56C992.687 434.16 996.287 435.96 1001.06 435.96C1007.27 435.96 1011.95 432.54 1015.1 425.79L1020.5 428.67C1016.27 436.95 1009.88 441.18 1001.15 441.18C994.757 441.18 989.537 439.02 985.757 434.61C982.157 430.56 980.357 425.16 980.357 418.59C980.357 411.93 982.067 406.53 985.577 402.3C989.267 397.71 994.307 395.46 1000.88 395.46C1007 395.46 1011.86 397.53 1015.28 401.67C1018.52 405.54 1020.14 410.67 1020.14 416.97V418.41ZM1013.21 413.46C1012.58 405.36 1008.26 401.31 1000.07 401.31C992.777 401.31 987.827 406.17 987.017 413.46H1013.21Z" fill="white"/>
<path d="M1096.73 402.12H1088.9V397.17H1096.73V379.8H1102.49V397.17H1110.95V402.12H1102.49V439.38H1096.73V402.12Z" fill="white"/>
<path d="M1137.14 439.38V365.67H1142.72V403.74C1146.14 398.34 1151.09 395.64 1157.66 395.64C1167.29 395.64 1172.87 401.13 1172.87 410.76V439.38H1166.93V413.37C1166.93 405.09 1163.33 400.86 1156.13 400.86C1147.49 400.86 1143.08 406.35 1143.08 417.33V439.38H1137.14Z" fill="white"/>
<path d="M1241.63 418.41H1208.15C1208.24 423.36 1209.41 427.5 1211.66 430.56C1214.18 434.16 1217.78 435.96 1222.55 435.96C1228.76 435.96 1233.44 432.54 1236.59 425.79L1241.99 428.67C1237.76 436.95 1231.37 441.18 1222.64 441.18C1216.25 441.18 1211.03 439.02 1207.25 434.61C1203.65 430.56 1201.85 425.16 1201.85 418.59C1201.85 411.93 1203.56 406.53 1207.07 402.3C1210.76 397.71 1215.8 395.46 1222.37 395.46C1228.49 395.46 1233.35 397.53 1236.77 401.67C1240.01 405.54 1241.63 410.67 1241.63 416.97V418.41ZM1234.79 413.46C1234.16 405.36 1229.84 401.31 1221.65 401.31C1214.36 401.31 1209.41 406.17 1208.6 413.46H1234.79Z" fill="white"/>
<path d="M1318.31 439.38V402.12H1310.39V397.17H1318.31V385.02C1318.31 378.18 1318.67 373.68 1319.39 371.52C1320.83 367.02 1324.25 364.77 1329.38 364.77C1331.45 364.77 1333.25 365.04 1335.05 365.76L1333.97 370.89C1332.44 370.08 1331.09 369.72 1329.74 369.72C1327.13 369.72 1325.42 371.07 1324.7 373.95C1324.34 375.39 1324.16 377.82 1324.16 381.24V397.17H1333.43V402.12H1324.16V439.38H1318.31Z" fill="white"/>
<path d="M1365.56 397.17V418.23C1365.56 423.81 1366.28 427.86 1367.54 430.38C1369.25 433.98 1372.58 435.78 1377.53 435.78C1382.39 435.78 1385.81 433.89 1387.7 430.29C1388.96 427.68 1389.68 423.63 1389.68 418.23V397.17H1395.53V421.2C1395.53 434.52 1389.59 441.18 1377.71 441.18C1365.74 441.18 1359.8 434.52 1359.8 421.2V397.17H1365.56Z" fill="white"/>
<path d="M1429.82 402.12H1421.99V397.17H1429.82V379.8H1435.58V397.17H1444.04V402.12H1435.58V439.38H1429.82V402.12Z" fill="white"/>
<path d="M1476.17 397.17V418.23C1476.17 423.81 1476.89 427.86 1478.15 430.38C1479.86 433.98 1483.19 435.78 1488.14 435.78C1493 435.78 1496.42 433.89 1498.31 430.29C1499.57 427.68 1500.29 423.63 1500.29 418.23V397.17H1506.14V421.2C1506.14 434.52 1500.2 441.18 1488.32 441.18C1476.35 441.18 1470.41 434.52 1470.41 421.2V397.17H1476.17Z" fill="white"/>
<path d="M1545.02 405.63C1548.98 398.88 1553.48 395.55 1558.7 395.55C1560.23 395.55 1561.94 395.82 1563.65 396.45L1561.76 402.03C1560.32 401.58 1558.97 401.31 1557.8 401.31C1553.84 401.31 1550.6 403.29 1548.17 407.16C1546.1 410.49 1545.02 414.27 1545.02 418.59V439.38H1539.17V397.17H1545.02V405.63Z" fill="white"/>
<path d="M1623.59 418.41H1590.11C1590.2 423.36 1591.37 427.5 1593.62 430.56C1596.14 434.16 1599.74 435.96 1604.51 435.96C1610.72 435.96 1615.4 432.54 1618.55 425.79L1623.95 428.67C1619.72 436.95 1613.33 441.18 1604.6 441.18C1598.21 441.18 1592.99 439.02 1589.21 434.61C1585.61 430.56 1583.81 425.16 1583.81 418.59C1583.81 411.93 1585.52 406.53 1589.03 402.3C1592.72 397.71 1597.76 395.46 1604.33 395.46C1610.45 395.46 1615.31 397.53 1618.73 401.67C1621.97 405.54 1623.59 410.67 1623.59 416.97V418.41ZM1616.66 413.46C1616.03 405.36 1611.71 401.31 1603.52 401.31C1596.23 401.31 1591.28 406.17 1590.47 413.46H1616.66Z" fill="white"/>
</svg>
