<svg width="1739" height="494" viewBox="0 0 1739 494" fill="none" xmlns="http://www.w3.org/2000/svg">
<path d="M140.398 486L137.841 484.055L156.738 411.688L11.5608 266.455L11.1162 264.788L64.5295 65.4744L65.7523 64.2516L265.066 10.8383L266.733 11.283L412.633 157.183L413.078 158.85L359.664 358.164L358.886 359.22L140.398 486ZM14.6734 264.732L159.906 409.965L160.351 411.633L142.287 480.942L356.552 356.663L409.521 158.962L265.01 14.4511L67.5865 67.3642L14.6734 264.732Z" fill="#587BBD"/>
<path d="M283.963 285.742L111.884 241.388L111.106 238.442L237.608 111.329L240.498 112.107L286.075 283.574L283.963 285.742ZM115.663 238.776L281.962 281.684L237.941 115.942L115.663 238.776Z" fill="#587BBD"/>
<path d="M159.904 412.411L157.014 411.632L64.7493 66.8081L66.8614 64.696L411.074 157.739L411.852 160.629L159.904 412.411ZM68.8623 68.809L159.57 407.853L407.295 160.295L68.8623 68.809Z" fill="#587BBD"/>
<path d="M111.903 237.986L12.361 263.545L13.218 266.883L112.76 241.324L111.903 237.986Z" fill="#587BBD"/>
<path d="M263.826 12.0938L237.131 112.141L240.461 113.03L267.155 12.9822L263.826 12.0938Z" fill="#587BBD"/>
<path d="M285.951 284.115L283.529 286.566L356.826 358.998L359.248 356.547L285.951 284.115Z" fill="#587BBD"/>
<path d="M13.0616 278.072C20.2753 278.072 26.1232 272.224 26.1232 265.01C26.1232 257.796 20.2753 251.949 13.0616 251.949C5.84796 251.949 0.00012207 257.796 0.00012207 265.01C0.00012207 272.224 5.84796 278.072 13.0616 278.072Z" fill="#587BBD"/>
<path d="M66.8078 80.0366C74.0214 80.0366 79.8693 74.1888 79.8693 66.9751C79.8693 59.7614 74.0214 53.9136 66.8078 53.9136C59.5941 53.9136 53.7462 59.7614 53.7462 66.9751C53.7462 74.1888 59.5941 80.0366 66.8078 80.0366Z" fill="#587BBD"/>
<path d="M265.732 26.1231C272.946 26.1231 278.794 20.2752 278.794 13.0615C278.794 5.84785 272.946 0 265.732 0C258.519 0 252.671 5.84785 252.671 13.0615C252.671 20.2752 258.519 26.1231 265.732 26.1231Z" fill="#587BBD"/>
<path d="M409.744 172.245C416.957 172.245 422.805 166.397 422.805 159.184C422.805 151.97 416.957 146.122 409.744 146.122C402.53 146.122 396.682 151.97 396.682 159.184C396.682 166.397 402.53 172.245 409.744 172.245Z" fill="#587BBD"/>
<path d="M358.109 370.836C365.322 370.836 371.17 364.988 371.17 357.775C371.17 350.561 365.322 344.713 358.109 344.713C350.895 344.713 345.047 350.561 345.047 357.775C345.047 364.988 350.895 370.836 358.109 370.836Z" fill="#587BBD"/>
<path d="M283.574 295.858C290.787 295.858 296.635 290.01 296.635 282.796C296.635 275.582 290.787 269.735 283.574 269.735C276.36 269.735 270.512 275.582 270.512 282.796C270.512 290.01 276.36 295.858 283.574 295.858Z" fill="#587BBD"/>
<path d="M158.796 423.082C166.01 423.082 171.858 417.234 171.858 410.021C171.858 402.807 166.01 396.959 158.796 396.959C151.582 396.959 145.734 402.807 145.734 410.021C145.734 417.234 151.582 423.082 158.796 423.082Z" fill="#587BBD"/>
<path d="M113.664 252.671C120.877 252.671 126.725 246.823 126.725 239.61C126.725 232.396 120.877 226.548 113.664 226.548C106.45 226.548 100.602 232.396 100.602 239.61C100.602 246.823 106.45 252.671 113.664 252.671Z" fill="#587BBD"/>
<path d="M238.775 126.558C245.989 126.558 251.837 120.71 251.837 113.496C251.837 106.283 245.989 100.435 238.775 100.435C231.561 100.435 225.714 106.283 225.714 113.496C225.714 120.71 231.561 126.558 238.775 126.558Z" fill="#587BBD"/>
<path d="M1563.56 52.7399L1536.92 1.25989H1484.62L1537.55 99.0899L1563.56 52.7399Z" fill="#46B97C"/>
<path d="M1603.43 124.83L1671.02 1.25989H1623.4L1579.67 83.4299H1579.58L1541.6 150.75L1480.94 260.01H1529.45L1578.23 166.32L1624.49 260.01H1678.49L1603.43 124.83Z" fill="#46B97C"/>
<path d="M573.285 260.01V43.2H509.475V0.269958H686.415V43.2H622.605V260.01H573.285Z" fill="#587BBD"/>
<path d="M573.285 260.01V43.2H509.475V0.269958H686.415V43.2H622.605V260.01H573.285Z" fill="#587BBD"/>
<path d="M1149.73 260.01V0.269958H1201.84L1276.46 130.68C1282.12 140.76 1287.44 151.02 1292.3 161.37C1297.16 171.72 1301.65 182.16 1305.71 192.78C1304.45 185.13 1303.46 176.85 1302.92 168.12C1302.38 159.3 1302.02 149.94 1302.02 139.95V0.269958H1347.37V259.92H1302.02L1220.93 126C1216.52 118.44 1211.84 109.35 1206.89 98.82C1201.94 88.2 1196.9 76.5 1191.58 63.63C1192.75 70.74 1193.56 78.4799 1194.1 87.0299C1194.64 95.4899 1194.92 105.3 1194.92 116.46V260.01H1149.73Z" fill="#46B97C"/>
<path d="M1391.03 260.01V0.269958H1440.17V259.92H1391.03V260.01Z" fill="#46B97C"/>
<path d="M778.665 215.73V173.52V145.44H866.055V103.86H778.665V42.57L895.035 42.48V0.269958H778.665H729.975V42.57V103.68V173.52V260.01H902.505V215.73H778.665Z" fill="#587BBD"/>
<path d="M984.135 77.67V0H938.055V161.28L984.135 77.67Z" fill="#587BBD"/>
<path d="M1037.15 124.2L1105.09 0H1057.21L1013.3 82.62L1013.2 82.53L984.135 134.19V133.65L938.055 217.26V260.01H984.135V219.06L1011.86 165.87L1058.3 260.01H1112.57L1037.15 124.2Z" fill="#587BBD"/>
<path d="M1631.59 464.49H544.215C529.545 464.49 517.755 452.61 517.755 438.03V381.6C517.755 366.93 529.635 355.14 544.215 355.14H1631.59C1646.27 355.14 1658.05 367.02 1658.05 381.6V438.03C1658.15 452.61 1646.27 464.49 1631.59 464.49Z" fill="#8DB861"/>
<path d="M567.165 439.38V369.72H573.465V439.38H567.165Z" fill="white"/>
<path d="M607.485 439.38V397.17H613.065V403.74C616.485 398.34 621.435 395.64 628.005 395.64C637.635 395.64 643.215 401.13 643.215 410.76V439.38H637.275V413.37C637.275 405.09 633.675 400.86 626.475 400.86C617.835 400.86 613.425 406.35 613.425 417.33V439.38H607.485Z" fill="white"/>
<path d="M675.705 439.38V397.17H681.285V403.74C684.705 398.34 689.655 395.64 696.225 395.64C705.855 395.64 711.435 401.13 711.435 410.76V439.38H705.495V413.37C705.495 405.09 701.895 400.86 694.695 400.86C686.055 400.86 681.645 406.35 681.645 417.33V439.38H675.705Z" fill="white"/>
<path d="M747.075 434.34C742.665 430.02 740.505 424.71 740.505 418.32C740.505 411.93 742.665 406.62 747.075 402.21C751.485 397.8 756.885 395.55 763.275 395.55C769.575 395.55 775.065 397.8 779.565 402.21C784.155 406.62 786.405 411.93 786.405 418.32C786.405 424.71 784.155 430.11 779.565 434.61C775.065 439.02 769.665 441.27 763.275 441.27C757.065 441.27 751.755 438.93 747.075 434.34ZM775.335 430.74C778.485 427.32 780.015 423.27 780.015 418.5C780.015 413.64 778.485 409.5 775.425 406.26C772.185 402.84 768.225 401.22 763.455 401.22C758.685 401.22 754.725 402.84 751.575 406.26C748.425 409.59 746.895 413.64 746.895 418.5C746.895 423.27 748.425 427.41 751.575 430.74C754.815 434.16 758.685 435.78 763.455 435.78C768.225 435.78 772.185 434.16 775.335 430.74Z" fill="white"/>
<path d="M809.625 397.17H816.015L828.975 429.12L841.845 397.17H848.415L829.065 442.08L809.625 397.17Z" fill="white"/>
<path d="M906.195 439.38V431.64C903.405 437.94 898.365 441.18 891.345 441.18C885.045 441.18 879.915 438.93 876.225 434.43C872.805 430.2 871.185 424.98 871.185 418.41C871.185 412.11 872.805 406.71 876.045 402.57C879.645 397.89 884.595 395.55 890.715 395.55C898.005 395.55 903.225 398.7 906.105 404.82V397.17H911.955V439.38H906.195ZM891.975 435.78C896.835 435.78 900.525 433.89 903.045 430.11C905.205 426.87 906.285 422.82 906.285 417.6C906.285 412.83 905.115 408.96 902.865 405.9C900.345 402.57 896.745 400.95 892.065 400.95C887.205 400.95 883.515 402.84 881.085 406.44C878.835 409.59 877.755 413.64 877.755 418.68C877.755 430.11 882.525 435.78 891.975 435.78Z" fill="white"/>
<path d="M946.515 402.12H938.685V397.17H946.515V379.8H952.275V397.17H960.735V402.12H952.275V439.38H946.515V402.12Z" fill="white"/>
<path d="M1023.19 418.41H989.715C989.805 423.36 990.975 427.5 993.225 430.56C995.745 434.16 999.345 435.96 1004.11 435.96C1010.32 435.96 1015 432.54 1018.15 425.79L1023.55 428.67C1019.32 436.95 1012.93 441.18 1004.2 441.18C997.815 441.18 992.595 439.02 988.815 434.61C985.215 430.56 983.415 425.16 983.415 418.59C983.415 411.93 985.125 406.53 988.635 402.3C992.325 397.71 997.365 395.46 1003.93 395.46C1010.05 395.46 1014.91 397.53 1018.33 401.67C1021.57 405.54 1023.19 410.67 1023.19 416.97V418.41ZM1016.26 413.46C1015.63 405.36 1011.31 401.31 1003.12 401.31C995.835 401.31 990.885 406.17 990.075 413.46H1016.26Z" fill="white"/>
<path d="M1099.78 402.12H1091.95V397.17H1099.78V379.8H1105.54V397.17H1114V402.12H1105.54V439.38H1099.78V402.12Z" fill="white"/>
<path d="M1140.19 439.38V365.67H1145.77V403.74C1149.19 398.34 1154.14 395.64 1160.71 395.64C1170.34 395.64 1175.92 401.13 1175.92 410.76V439.38H1169.98V413.37C1169.98 405.09 1166.38 400.86 1159.18 400.86C1150.54 400.86 1146.13 406.35 1146.13 417.33V439.38H1140.19Z" fill="white"/>
<path d="M1244.68 418.41H1211.2C1211.29 423.36 1212.46 427.5 1214.71 430.56C1217.23 434.16 1220.83 435.96 1225.6 435.96C1231.81 435.96 1236.49 432.54 1239.64 425.79L1245.04 428.67C1240.81 436.95 1234.42 441.18 1225.69 441.18C1219.3 441.18 1214.08 439.02 1210.3 434.61C1206.7 430.56 1204.9 425.16 1204.9 418.59C1204.9 411.93 1206.61 406.53 1210.12 402.3C1213.81 397.71 1218.85 395.46 1225.42 395.46C1231.54 395.46 1236.4 397.53 1239.82 401.67C1243.06 405.54 1244.68 410.67 1244.68 416.97V418.41ZM1237.84 413.46C1237.21 405.36 1232.89 401.31 1224.7 401.31C1217.41 401.31 1212.46 406.17 1211.65 413.46H1237.84Z" fill="white"/>
<path d="M1321.36 439.38V402.12H1313.45V397.17H1321.36V385.02C1321.36 378.18 1321.73 373.68 1322.45 371.52C1323.89 367.02 1327.31 364.77 1332.44 364.77C1334.51 364.77 1336.3 365.04 1338.1 365.76L1337.03 370.89C1335.5 370.08 1334.15 369.72 1332.8 369.72C1330.19 369.72 1328.48 371.07 1327.76 373.95C1327.4 375.39 1327.21 377.82 1327.21 381.24V397.17H1336.48V402.12H1327.21V439.38H1321.36Z" fill="white"/>
<path d="M1368.61 397.17V418.23C1368.61 423.81 1369.33 427.86 1370.59 430.38C1372.3 433.98 1375.63 435.78 1380.58 435.78C1385.44 435.78 1388.86 433.89 1390.75 430.29C1392.01 427.68 1392.73 423.63 1392.73 418.23V397.17H1398.58V421.2C1398.58 434.52 1392.64 441.18 1380.76 441.18C1368.79 441.18 1362.85 434.52 1362.85 421.2V397.17H1368.61Z" fill="white"/>
<path d="M1432.96 402.12H1425.13V397.17H1432.96V379.8H1438.72V397.17H1447.18V402.12H1438.72V439.38H1432.96V402.12Z" fill="white"/>
<path d="M1479.22 397.17V418.23C1479.22 423.81 1479.94 427.86 1481.2 430.38C1482.91 433.98 1486.24 435.78 1491.19 435.78C1496.05 435.78 1499.47 433.89 1501.36 430.29C1502.62 427.68 1503.34 423.63 1503.34 418.23V397.17H1509.19V421.2C1509.19 434.52 1503.25 441.18 1491.37 441.18C1479.4 441.18 1473.46 434.52 1473.46 421.2V397.17H1479.22Z" fill="white"/>
<path d="M1548.07 405.63C1552.03 398.88 1556.54 395.55 1561.76 395.55C1563.29 395.55 1564.99 395.82 1566.7 396.45L1564.81 402.03C1563.37 401.58 1562.02 401.31 1560.85 401.31C1556.89 401.31 1553.65 403.29 1551.22 407.16C1549.15 410.49 1548.07 414.27 1548.07 418.59V439.38H1542.22V397.17H1548.07V405.63Z" fill="white"/>
<path d="M1626.64 418.41H1593.17C1593.26 423.36 1594.43 427.5 1596.68 430.56C1599.2 434.16 1602.8 435.96 1607.57 435.96C1613.78 435.96 1618.45 432.54 1621.6 425.79L1627.01 428.67C1622.78 436.95 1616.38 441.18 1607.65 441.18C1601.26 441.18 1596.05 439.02 1592.27 434.61C1588.67 430.56 1586.86 425.16 1586.86 418.59C1586.86 411.93 1588.58 406.53 1592.09 402.3C1595.78 397.71 1600.81 395.46 1607.38 395.46C1613.5 395.46 1618.37 397.53 1621.79 401.67C1625.03 405.54 1626.64 410.67 1626.64 416.97V418.41ZM1619.81 413.46C1619.18 405.36 1614.85 401.31 1606.66 401.31C1599.37 401.31 1594.42 406.17 1593.61 413.46H1619.81Z" fill="white"/>
<path d="M1683.34 493.02H504.615C474.375 493.02 449.805 468.45 449.805 438.21V368.82C449.805 338.58 474.375 314.01 504.615 314.01H1683.34C1713.58 314.01 1738.15 338.58 1738.15 368.82V438.21C1738.15 468.45 1713.58 493.02 1683.34 493.02Z" fill="#46B97C"/>
<path d="M564.105 439.38V369.72H570.405V439.38H564.105Z" fill="white"/>
<path d="M604.425 439.38V397.17H610.005V403.74C613.425 398.34 618.375 395.64 624.945 395.64C634.575 395.64 640.155 401.13 640.155 410.76V439.38H634.215V413.37C634.215 405.09 630.615 400.86 623.415 400.86C614.775 400.86 610.365 406.35 610.365 417.33V439.38H604.425Z" fill="white"/>
<path d="M672.645 439.38V397.17H678.225V403.74C681.645 398.34 686.595 395.64 693.165 395.64C702.795 395.64 708.375 401.13 708.375 410.76V439.38H702.435V413.37C702.435 405.09 698.835 400.86 691.635 400.86C682.995 400.86 678.585 406.35 678.585 417.33V439.38H672.645Z" fill="white"/>
<path d="M744.015 434.34C739.605 430.02 737.445 424.71 737.445 418.32C737.445 411.93 739.605 406.62 744.015 402.21C748.425 397.8 753.825 395.55 760.215 395.55C766.515 395.55 772.005 397.8 776.505 402.21C781.095 406.62 783.345 411.93 783.345 418.32C783.345 424.71 781.095 430.11 776.505 434.61C772.005 439.02 766.605 441.27 760.215 441.27C754.005 441.27 748.695 438.93 744.015 434.34ZM772.275 430.74C775.425 427.32 776.955 423.27 776.955 418.5C776.955 413.64 775.425 409.5 772.365 406.26C769.125 402.84 765.165 401.22 760.395 401.22C755.625 401.22 751.665 402.84 748.515 406.26C745.365 409.59 743.835 413.64 743.835 418.5C743.835 423.27 745.365 427.41 748.515 430.74C751.755 434.16 755.625 435.78 760.395 435.78C765.165 435.78 769.125 434.16 772.275 430.74Z" fill="white"/>
<path d="M806.565 397.17H812.955L825.915 429.12L838.785 397.17H845.355L826.005 442.08L806.565 397.17Z" fill="white"/>
<path d="M903.135 439.38V431.64C900.345 437.94 895.305 441.18 888.285 441.18C881.985 441.18 876.855 438.93 873.165 434.43C869.745 430.2 868.125 424.98 868.125 418.41C868.125 412.11 869.745 406.71 872.985 402.57C876.585 397.89 881.535 395.55 887.655 395.55C894.945 395.55 900.165 398.7 903.045 404.82V397.17H908.895V439.38H903.135ZM888.915 435.78C893.775 435.78 897.465 433.89 899.985 430.11C902.145 426.87 903.225 422.82 903.225 417.6C903.225 412.83 902.055 408.96 899.805 405.9C897.285 402.57 893.685 400.95 889.005 400.95C884.145 400.95 880.455 402.84 878.025 406.44C875.775 409.59 874.695 413.64 874.695 418.68C874.695 430.11 879.465 435.78 888.915 435.78Z" fill="white"/>
<path d="M943.455 402.12H935.625V397.17H943.455V379.8H949.215V397.17H957.675V402.12H949.215V439.38H943.455V402.12Z" fill="white"/>
<path d="M1020.13 418.41H986.655C986.745 423.36 987.915 427.5 990.165 430.56C992.685 434.16 996.285 435.96 1001.05 435.96C1007.26 435.96 1011.94 432.54 1015.09 425.79L1020.49 428.67C1016.26 436.95 1009.87 441.18 1001.14 441.18C994.755 441.18 989.535 439.02 985.755 434.61C982.155 430.56 980.355 425.16 980.355 418.59C980.355 411.93 982.065 406.53 985.575 402.3C989.265 397.71 994.305 395.46 1000.87 395.46C1006.99 395.46 1011.85 397.53 1015.27 401.67C1018.51 405.54 1020.13 410.67 1020.13 416.97V418.41ZM1013.2 413.46C1012.57 405.36 1008.25 401.31 1000.06 401.31C992.775 401.31 987.825 406.17 987.015 413.46H1013.2Z" fill="white"/>
<path d="M1096.72 402.12H1088.89V397.17H1096.72V379.8H1102.48V397.17H1110.94V402.12H1102.48V439.38H1096.72V402.12Z" fill="white"/>
<path d="M1137.13 439.38V365.67H1142.71V403.74C1146.13 398.34 1151.08 395.64 1157.65 395.64C1167.28 395.64 1172.86 401.13 1172.86 410.76V439.38H1166.92V413.37C1166.92 405.09 1163.32 400.86 1156.12 400.86C1147.48 400.86 1143.07 406.35 1143.07 417.33V439.38H1137.13Z" fill="white"/>
<path d="M1241.62 418.41H1208.14C1208.23 423.36 1209.4 427.5 1211.65 430.56C1214.17 434.16 1217.77 435.96 1222.54 435.96C1228.75 435.96 1233.43 432.54 1236.58 425.79L1241.98 428.67C1237.75 436.95 1231.36 441.18 1222.63 441.18C1216.24 441.18 1211.02 439.02 1207.24 434.61C1203.64 430.56 1201.84 425.16 1201.84 418.59C1201.84 411.93 1203.55 406.53 1207.06 402.3C1210.75 397.71 1215.79 395.46 1222.36 395.46C1228.48 395.46 1233.34 397.53 1236.76 401.67C1240 405.54 1241.62 410.67 1241.62 416.97V418.41ZM1234.78 413.46C1234.15 405.36 1229.83 401.31 1221.64 401.31C1214.35 401.31 1209.4 406.17 1208.59 413.46H1234.78Z" fill="white"/>
<path d="M1318.3 439.38V402.12H1310.38V397.17H1318.3V385.02C1318.3 378.18 1318.66 373.68 1319.38 371.52C1320.82 367.02 1324.24 364.77 1329.37 364.77C1331.44 364.77 1333.24 365.04 1335.04 365.76L1333.96 370.89C1332.43 370.08 1331.08 369.72 1329.73 369.72C1327.12 369.72 1325.41 371.07 1324.69 373.95C1324.33 375.39 1324.15 377.82 1324.15 381.24V397.17H1333.42V402.12H1324.15V439.38H1318.3Z" fill="white"/>
<path d="M1365.55 397.17V418.23C1365.55 423.81 1366.27 427.86 1367.53 430.38C1369.24 433.98 1372.57 435.78 1377.52 435.78C1382.38 435.78 1385.8 433.89 1387.69 430.29C1388.95 427.68 1389.67 423.63 1389.67 418.23V397.17H1395.52V421.2C1395.52 434.52 1389.58 441.18 1377.7 441.18C1365.73 441.18 1359.79 434.52 1359.79 421.2V397.17H1365.55Z" fill="white"/>
<path d="M1429.81 402.12H1421.98V397.17H1429.81V379.8H1435.57V397.17H1444.03V402.12H1435.57V439.38H1429.81V402.12Z" fill="white"/>
<path d="M1476.16 397.17V418.23C1476.16 423.81 1476.88 427.86 1478.14 430.38C1479.85 433.98 1483.18 435.78 1488.13 435.78C1492.99 435.78 1496.41 433.89 1498.3 430.29C1499.56 427.68 1500.28 423.63 1500.28 418.23V397.17H1506.13V421.2C1506.13 434.52 1500.19 441.18 1488.31 441.18C1476.34 441.18 1470.4 434.52 1470.4 421.2V397.17H1476.16Z" fill="white"/>
<path d="M1545.01 405.63C1548.97 398.88 1553.47 395.55 1558.69 395.55C1560.22 395.55 1561.93 395.82 1563.64 396.45L1561.75 402.03C1560.31 401.58 1558.96 401.31 1557.79 401.31C1553.83 401.31 1550.59 403.29 1548.16 407.16C1546.09 410.49 1545.01 414.27 1545.01 418.59V439.38H1539.16V397.17H1545.01V405.63Z" fill="white"/>
<path d="M1623.58 418.41H1590.1C1590.19 423.36 1591.36 427.5 1593.61 430.56C1596.13 434.16 1599.73 435.96 1604.5 435.96C1610.71 435.96 1615.39 432.54 1618.54 425.79L1623.94 428.67C1619.71 436.95 1613.32 441.18 1604.59 441.18C1598.2 441.18 1592.98 439.02 1589.2 434.61C1585.6 430.56 1583.8 425.16 1583.8 418.59C1583.8 411.93 1585.51 406.53 1589.02 402.3C1592.71 397.71 1597.75 395.46 1604.32 395.46C1610.44 395.46 1615.3 397.53 1618.72 401.67C1621.96 405.54 1623.58 410.67 1623.58 416.97V418.41ZM1616.65 413.46C1616.02 405.36 1611.7 401.31 1603.51 401.31C1596.22 401.31 1591.27 406.17 1590.46 413.46H1616.65Z" fill="white"/>
</svg>
