<svg width="1577" height="300" viewBox="0 0 1577 300" fill="none" xmlns="http://www.w3.org/2000/svg">
<path d="M86.6652 300L85.087 298.799L96.7521 254.129L7.13641 164.479L6.86194 163.449L39.8331 40.4164L40.5879 39.6616L163.621 6.69043L164.65 6.9649L254.712 97.0266L254.986 98.0559L222.015 221.089L221.535 221.741L86.6652 300ZM9.05773 163.415L98.7078 253.065L98.9822 254.094L87.8317 296.878L220.094 220.162L252.791 98.1245L163.587 8.92053L41.7201 41.5829L9.05773 163.415Z" fill="#587BBD"/>
<path d="M175.286 176.384L69.0642 149.005L68.5839 147.187L146.672 68.7214L148.456 69.2018L176.589 175.046L175.286 176.384ZM71.3972 147.393L174.05 173.879L146.878 71.5691L71.3972 147.393Z" fill="#587BBD"/>
<path d="M98.7062 254.574L96.9221 254.094L39.9688 41.2395L41.2725 39.9358L253.75 97.3695L254.23 99.1535L98.7062 254.574ZM42.5076 42.4747L98.5003 251.761L251.417 98.9477L42.5076 42.4747Z" fill="#587BBD"/>
<path d="M69.0761 146.905L7.63025 162.682L8.15928 164.743L69.6051 148.966L69.0761 146.905Z" fill="#587BBD"/>
<path d="M162.856 7.46522L146.377 69.2229L148.433 69.7713L164.911 8.01361L162.856 7.46522Z" fill="#587BBD"/>
<path d="M176.513 175.38L175.018 176.893L220.263 221.604L221.758 220.091L176.513 175.38Z" fill="#587BBD"/>
<path d="M8.06279 171.649C12.5157 171.649 16.1255 168.039 16.1255 163.586C16.1255 159.133 12.5157 155.524 8.06279 155.524C3.6099 155.524 0.00012207 159.133 0.00012207 163.586C0.00012207 168.039 3.6099 171.649 8.06279 171.649Z" fill="#587BBD"/>
<path d="M41.2394 49.4051C45.6923 49.4051 49.3021 45.7953 49.3021 41.3425C49.3021 36.8896 45.6923 33.2798 41.2394 33.2798C36.7865 33.2798 33.1768 36.8896 33.1768 41.3425C33.1768 45.7953 36.7865 49.4051 41.2394 49.4051Z" fill="#587BBD"/>
<path d="M164.032 16.1253C168.485 16.1253 172.095 12.5156 172.095 8.06267C172.095 3.60978 168.485 0 164.032 0C159.579 0 155.97 3.60978 155.97 8.06267C155.97 12.5156 159.579 16.1253 164.032 16.1253Z" fill="#587BBD"/>
<path d="M252.928 106.324C257.381 106.324 260.991 102.715 260.991 98.2616C260.991 93.8087 257.381 90.199 252.928 90.199C248.475 90.199 244.865 93.8087 244.865 98.2616C244.865 102.715 248.475 106.324 252.928 106.324Z" fill="#587BBD"/>
<path d="M221.055 228.911C225.508 228.911 229.117 225.301 229.117 220.849C229.117 216.396 225.508 212.786 221.055 212.786C216.602 212.786 212.992 216.396 212.992 220.849C212.992 225.301 216.602 228.911 221.055 228.911Z" fill="#587BBD"/>
<path d="M175.045 182.628C179.498 182.628 183.108 179.018 183.108 174.566C183.108 170.113 179.498 166.503 175.045 166.503C170.593 166.503 166.983 170.113 166.983 174.566C166.983 179.018 170.593 182.628 175.045 182.628Z" fill="#587BBD"/>
<path d="M98.0223 261.162C102.475 261.162 106.085 257.552 106.085 253.099C106.085 248.646 102.475 245.037 98.0223 245.037C93.5694 245.037 89.9596 248.646 89.9596 253.099C89.9596 257.552 93.5694 261.162 98.0223 261.162Z" fill="#587BBD"/>
<path d="M70.1628 155.97C74.6157 155.97 78.2255 152.36 78.2255 147.907C78.2255 143.454 74.6157 139.844 70.1628 139.844C65.7099 139.844 62.1001 143.454 62.1001 147.907C62.1001 152.36 65.7099 155.97 70.1628 155.97Z" fill="#587BBD"/>
<path d="M147.392 78.1222C151.845 78.1222 155.455 74.5124 155.455 70.0595C155.455 65.6066 151.845 61.9968 147.392 61.9968C142.939 61.9968 139.329 65.6066 139.329 70.0595C139.329 74.5124 142.939 78.1222 147.392 78.1222Z" fill="#587BBD"/>
<path d="M351.798 279.73V62.9284H287.991V20H464.924V62.9284H401.116V279.73H351.798Z" fill="#587BBD"/>
<path d="M556.41 235.452V193.243V165.164H643.797V123.586H556.41V62.2984L672.776 62.2084V20H556.41H507.722V62.2984V123.406V193.243V279.73H680.246V235.452H556.41Z" fill="#587BBD"/>
<path d="M769.122 97.6671V20H723.044V181.274L769.122 97.6671Z" fill="#587BBD"/>
<path d="M822.13 144.195L890.078 20H842.199L798.281 102.617L798.191 102.527L769.122 154.185V153.645L723.044 237.252V280H769.122V239.052L796.841 185.864L843.279 280H897.547L822.13 144.195Z" fill="#587BBD"/>
<path d="M940.346 279.73V20H992.454L1067.06 150.405C1072.73 160.485 1078.04 170.744 1082.9 181.094C1087.76 191.443 1092.26 201.883 1096.31 212.503C1095.05 204.853 1094.06 196.573 1093.52 187.844C1092.98 179.024 1092.62 169.664 1092.62 159.675V20H1137.98V279.64H1092.62L1011.53 145.725C1007.12 138.165 1002.44 129.076 997.493 118.546C992.544 107.927 987.504 96.2271 982.194 83.3576C983.364 90.4673 984.174 98.207 984.714 106.757C985.254 115.216 985.524 125.026 985.524 136.186V279.73H940.346Z" fill="#46B97C"/>
<path d="M1180.78 279.73V20H1229.91V279.64H1180.78V279.73Z" fill="#46B97C"/>
<path d="M1355.33 71.478L1328.69 20H1276.4L1329.32 117.826L1355.33 71.478Z" fill="#46B97C"/>
<path d="M1395.2 143.565L1462.79 20H1415.18L1371.44 102.167H1371.35L1333.37 169.484L1272.71 278.74H1321.22L1370 185.054L1416.26 278.74H1470.26L1395.2 143.565Z" fill="#46B97C"/>
</svg>
