<svg width="1739" height="491" viewBox="0 0 1739 491" fill="none" xmlns="http://www.w3.org/2000/svg">
<path d="M140.399 488.16L137.842 486.215L156.74 413.848L11.5067 268.615L11.062 266.948L64.4754 67.6344L65.6981 66.4116L265.011 12.9983L266.679 13.4429L412.579 159.343L413.024 161.01L359.61 360.324L358.832 361.38L140.399 488.16ZM14.6747 266.892L159.908 412.125L160.353 413.793L142.289 483.102L356.553 358.823L409.522 161.122L265.011 16.6111L67.5879 69.5241L14.6747 266.892Z" fill="white"/>
<path d="M283.965 287.902L111.887 243.548L111.109 240.658L237.611 113.544L240.501 114.322L286.078 285.79L283.965 287.902ZM115.666 240.936L281.965 283.844L237.944 118.102L115.666 240.936Z" fill="white"/>
<path d="M159.909 414.571L157.019 413.792L64.7549 68.9682L66.867 66.8561L411.08 159.899L411.858 162.789L159.909 414.571ZM68.8678 70.9691L159.576 410.013L407.3 162.455L68.8678 70.9691Z" fill="white"/>
<path d="M111.863 240.107L12.321 265.665L13.178 269.003L112.72 243.444L111.863 240.107Z" fill="white"/>
<path d="M263.794 14.2378L237.1 114.285L240.429 115.174L267.124 15.1262L263.794 14.2378Z" fill="white"/>
<path d="M285.911 286.214L283.489 288.665L356.786 361.097L359.208 358.646L285.911 286.214Z" fill="white"/>
<path d="M13.0616 280.232C20.2752 280.232 26.1231 274.384 26.1231 267.17C26.1231 259.956 20.2752 254.109 13.0616 254.109C5.84788 254.109 0 259.956 0 267.17C0 274.384 5.84788 280.232 13.0616 280.232Z" fill="white"/>
<path d="M66.8079 82.1966C74.0216 82.1966 79.8695 76.3488 79.8695 69.1351C79.8695 61.9214 74.0216 56.0735 66.8079 56.0735C59.5942 56.0735 53.7463 61.9214 53.7463 69.1351C53.7463 76.3488 59.5942 82.1966 66.8079 82.1966Z" fill="white"/>
<path d="M265.732 28.283C272.946 28.283 278.794 22.4351 278.794 15.2214C278.794 8.00776 272.946 2.15991 265.732 2.15991C258.519 2.15991 252.671 8.00776 252.671 15.2214C252.671 22.4351 258.519 28.283 265.732 28.283Z" fill="white"/>
<path d="M409.744 174.405C416.957 174.405 422.805 168.557 422.805 161.344C422.805 154.13 416.957 148.282 409.744 148.282C402.53 148.282 396.682 154.13 396.682 161.344C396.682 168.557 402.53 174.405 409.744 174.405Z" fill="white"/>
<path d="M358.109 372.996C365.322 372.996 371.17 367.148 371.17 359.935C371.17 352.721 365.322 346.873 358.109 346.873C350.895 346.873 345.047 352.721 345.047 359.935C345.047 367.148 350.895 372.996 358.109 372.996Z" fill="white"/>
<path d="M283.574 298.018C290.787 298.018 296.635 292.17 296.635 284.956C296.635 277.742 290.787 271.895 283.574 271.895C276.36 271.895 270.512 277.742 270.512 284.956C270.512 292.17 276.36 298.018 283.574 298.018Z" fill="white"/>
<path d="M158.796 425.242C166.01 425.242 171.857 419.394 171.857 412.181C171.857 404.967 166.01 399.119 158.796 399.119C151.582 399.119 145.734 404.967 145.734 412.181C145.734 419.394 151.582 425.242 158.796 425.242Z" fill="white"/>
<path d="M113.664 254.831C120.877 254.831 126.725 248.983 126.725 241.77C126.725 234.556 120.877 228.708 113.664 228.708C106.45 228.708 100.602 234.556 100.602 241.77C100.602 248.983 106.45 254.831 113.664 254.831Z" fill="white"/>
<path d="M238.775 128.718C245.989 128.718 251.837 122.87 251.837 115.656C251.837 108.443 245.989 102.595 238.775 102.595C231.561 102.595 225.714 108.443 225.714 115.656C225.714 122.87 231.561 128.718 238.775 128.718Z" fill="white"/>
<path d="M776.865 415.71C776.865 410.85 775.335 406.71 772.275 403.47C769.395 400.41 765.885 398.88 761.835 398.52C757.785 398.88 754.275 400.41 751.485 403.47C748.335 406.8 746.805 410.85 746.805 415.71C746.805 420.48 748.335 424.62 751.485 427.95C754.365 431.01 757.785 432.54 761.835 432.9C765.885 432.54 769.395 431.01 772.185 427.95C775.335 424.62 776.865 420.48 776.865 415.71Z" fill="white"/>
<path d="M1001.78 398.79C995.295 399.42 990.795 403.92 990.075 410.76H1013.21C1012.67 403.29 1008.8 399.42 1001.78 398.79Z" fill="white"/>
<path d="M890.625 398.43C886.485 398.79 883.245 400.5 881.085 403.74C878.835 406.89 877.755 410.94 877.755 415.98C877.755 426.6 881.985 432.18 890.265 432.9C894.495 432.54 897.735 430.83 899.985 427.41C902.145 424.17 903.225 420.12 903.225 414.9C903.225 410.13 902.055 406.26 899.805 403.2C897.645 400.32 894.495 398.79 890.625 398.43Z" fill="white"/>
<path d="M1223.27 398.79C1216.79 399.42 1212.29 403.92 1211.57 410.76H1234.7C1234.16 403.29 1230.29 399.42 1223.27 398.79Z" fill="white"/>
<path d="M1605.23 398.79C1598.75 399.42 1594.25 403.92 1593.53 410.76H1616.66C1616.12 403.29 1612.25 399.42 1605.23 398.79Z" fill="white"/>
<path d="M1678.94 311.31H509.025C476.265 311.31 449.805 337.86 449.805 370.53V431.1C449.805 463.86 476.355 490.32 509.025 490.32H1678.94C1711.7 490.32 1738.16 463.77 1738.16 431.1V370.53C1738.16 337.77 1711.61 311.31 1678.94 311.31ZM573.465 436.68H570.405H567.165H564.105V367.02H567.165H570.405H573.465V436.68ZM643.125 436.68H640.065H637.185H634.125V410.67C634.125 402.84 630.795 398.79 624.315 398.34C617.025 399.15 613.335 404.55 613.335 414.63V436.68H610.275H607.485H604.425V394.47H607.485H610.005H613.065V397.35C616.215 394.47 620.085 392.94 624.855 392.94C625.485 392.94 626.115 393.03 626.655 393.12C627.105 393.12 627.465 392.94 627.915 392.94C637.545 392.94 643.125 398.43 643.125 408.06V436.68ZM711.345 436.68H708.285H705.405H702.345V410.67C702.345 402.84 699.015 398.79 692.535 398.34C685.245 399.15 681.555 404.55 681.555 414.63V436.68H678.495H675.705H672.645V394.47H675.705H678.225H681.285V397.35C684.435 394.47 688.305 392.94 693.165 392.94C693.795 392.94 694.425 393.03 694.965 393.12C695.415 393.12 695.775 392.94 696.225 392.94C705.855 392.94 711.435 398.43 711.435 408.06V436.68H711.345ZM779.475 431.91C774.975 436.32 769.575 438.57 763.185 438.57C762.645 438.57 762.195 438.48 761.745 438.39C761.205 438.39 760.665 438.57 760.125 438.57C754.005 438.57 748.605 436.23 743.925 431.64C739.515 427.32 737.355 422.01 737.355 415.62C737.355 409.32 739.515 403.92 743.925 399.51C748.335 395.1 753.735 392.85 760.125 392.85C760.665 392.85 761.115 392.94 761.655 393.03C762.195 393.03 762.645 392.85 763.185 392.85C769.485 392.85 774.975 395.1 779.475 399.51C784.065 403.92 786.315 409.23 786.315 415.62C786.315 422.01 784.065 427.41 779.475 431.91ZM828.975 439.38L827.445 435.87L825.915 439.38L806.565 394.47H809.625H812.955H816.015L827.445 422.64L838.785 394.47H841.845H845.265H848.325L828.975 439.38ZM912.045 436.68H908.985H906.195H903.135V433.62C900.255 436.77 896.385 438.48 891.435 438.48C890.805 438.48 890.265 438.39 889.725 438.3C889.275 438.3 888.915 438.48 888.375 438.48C882.075 438.48 876.945 436.23 873.255 431.73C869.835 427.5 868.215 422.28 868.215 415.71C868.215 409.41 869.835 404.01 873.075 399.87C876.675 395.19 881.625 392.85 887.745 392.85C888.285 392.85 888.645 392.94 889.185 393.03C889.725 393.03 890.265 392.85 890.805 392.85C896.025 392.85 900.165 394.56 903.135 397.71V394.47H906.195H908.985H912.045V436.68ZM960.735 399.42H957.675H952.275V436.68H949.215H946.515H943.455V399.42H938.685H935.625V394.47H938.685H943.455V377.1H946.515H949.215H952.275V394.47H957.675H960.735V399.42ZM1004.12 438.57C1003.49 438.57 1002.95 438.48 1002.32 438.39C1001.87 438.39 1001.51 438.57 1001.06 438.57C994.665 438.57 989.445 436.41 985.665 432C982.065 427.95 980.265 422.55 980.265 415.98C980.265 409.32 981.975 403.92 985.485 399.69C989.175 395.1 994.215 392.85 1000.79 392.85C1001.33 392.85 1001.78 392.94 1002.32 393.03C1002.86 393.03 1003.31 392.85 1003.85 392.85C1009.97 392.85 1014.83 394.92 1018.25 399.06C1021.49 402.93 1023.11 408.06 1023.11 414.36V415.62H1020.05H989.625C989.715 420.57 990.885 424.71 993.135 427.77C995.295 430.92 998.355 432.54 1002.23 432.99C1007.81 432.54 1012.13 429.3 1015.01 423L1017.35 424.26C1017.62 423.81 1017.89 423.45 1018.07 423L1023.47 425.88C1019.33 434.34 1012.85 438.57 1004.12 438.57ZM1114.01 399.42H1110.95H1105.55V436.68H1102.49H1099.79H1096.73V399.42H1091.96H1088.9V394.47H1091.96H1096.73V377.1H1099.79H1102.49H1105.55V394.47H1110.95H1114.01V399.42ZM1175.84 436.68H1172.78H1169.9H1166.84V410.67C1166.84 402.84 1163.51 398.79 1157.03 398.34C1149.74 399.15 1146.05 404.55 1146.05 414.63V436.68H1142.99H1140.2H1137.14V362.97H1140.2H1142.72H1145.78V397.35C1148.93 394.47 1152.8 392.94 1157.66 392.94C1158.29 392.94 1158.92 393.03 1159.46 393.12C1159.91 393.12 1160.27 392.94 1160.72 392.94C1170.35 392.94 1175.93 398.43 1175.93 408.06V436.68H1175.84ZM1225.61 438.57C1224.98 438.57 1224.44 438.48 1223.81 438.39C1223.36 438.39 1223 438.57 1222.55 438.57C1216.16 438.57 1210.94 436.41 1207.16 432C1203.56 427.95 1201.85 422.55 1201.85 415.98C1201.85 409.32 1203.56 403.92 1207.07 399.69C1210.76 395.1 1215.8 392.85 1222.37 392.85C1222.91 392.85 1223.36 392.94 1223.9 393.03C1224.44 393.03 1224.89 392.85 1225.43 392.85C1231.55 392.85 1236.41 394.92 1239.83 399.06C1243.07 402.93 1244.69 408.06 1244.69 414.36V415.62H1241.63H1211.21C1211.3 420.57 1212.47 424.71 1214.72 427.77C1216.88 430.92 1219.94 432.54 1223.81 432.99C1229.39 432.54 1233.71 429.3 1236.59 423L1238.93 424.26C1239.2 423.81 1239.47 423.45 1239.65 423L1245.05 425.88C1240.82 434.34 1234.43 438.57 1225.61 438.57ZM1337.03 368.19C1335.95 367.65 1335.05 367.38 1334.15 367.2L1333.97 368.19C1332.98 367.74 1332.17 367.47 1331.27 367.29C1329.56 367.74 1328.39 369 1327.76 371.25C1327.4 372.69 1327.22 375.12 1327.22 378.54V394.47H1333.43H1336.49V399.42H1333.43H1327.22V436.68H1324.16H1321.37H1318.31V399.42H1313.45H1310.39V394.47H1313.45H1318.31V382.32C1318.31 375.48 1318.67 370.98 1319.39 368.82C1320.83 364.32 1324.25 362.07 1329.38 362.07C1330.01 362.07 1330.64 362.16 1331.18 362.25C1331.63 362.25 1331.99 362.07 1332.44 362.07C1334.51 362.07 1336.31 362.34 1338.11 363.06L1337.03 368.19ZM1398.5 418.59C1398.5 431.91 1392.56 438.57 1380.68 438.57C1380.14 438.57 1379.69 438.48 1379.15 438.48C1378.61 438.48 1378.16 438.57 1377.62 438.57C1365.65 438.57 1359.71 431.91 1359.71 418.59V394.47H1362.77H1365.56H1368.62V415.53C1368.62 421.11 1369.34 425.16 1370.6 427.68C1372.13 430.83 1375.01 432.54 1379.06 432.9C1383.11 432.54 1386.08 430.83 1387.7 427.59C1388.96 424.98 1389.68 420.93 1389.68 415.53V394.47H1392.74H1395.53H1398.59V418.59H1398.5ZM1447.1 399.42H1444.04H1438.64V436.68H1435.58H1432.88H1429.82V399.42H1425.05H1421.99V394.47H1425.05H1429.82V377.1H1432.88H1435.58H1438.64V394.47H1444.04H1447.1V399.42ZM1509.11 418.59C1509.11 431.91 1503.17 438.57 1491.29 438.57C1490.74 438.57 1490.3 438.48 1489.76 438.48C1489.22 438.48 1488.77 438.57 1488.23 438.57C1476.26 438.57 1470.32 431.91 1470.32 418.59V394.47H1473.38H1476.17H1479.23V415.53C1479.23 421.11 1479.95 425.16 1481.21 427.68C1482.74 430.83 1485.62 432.54 1489.67 432.9C1493.72 432.54 1496.69 430.83 1498.31 427.59C1499.57 424.98 1500.29 420.93 1500.29 415.53V394.47H1503.35H1506.14H1509.2V418.59H1509.11ZM1564.82 399.33C1563.74 398.97 1562.84 398.88 1561.94 398.79L1561.76 399.33C1560.77 398.97 1559.96 398.97 1559.06 398.88C1555.91 399.42 1553.21 401.22 1551.14 404.46C1549.07 407.79 1547.99 411.57 1547.99 415.89V436.68H1544.93H1542.14H1539.08V394.47H1542.14H1544.93H1547.99V398.61C1551.14 394.83 1554.65 392.94 1558.52 392.94C1558.97 392.94 1559.51 393.12 1560.05 393.21C1560.59 393.12 1561.13 392.94 1561.67 392.94C1563.2 392.94 1564.91 393.21 1566.62 393.84L1564.82 399.33ZM1607.57 438.57C1606.94 438.57 1606.4 438.48 1605.77 438.39C1605.32 438.39 1604.96 438.57 1604.51 438.57C1598.12 438.57 1592.9 436.41 1589.12 432C1585.52 427.95 1583.72 422.55 1583.72 415.98C1583.72 409.32 1585.43 403.92 1588.94 399.69C1592.63 395.1 1597.67 392.85 1604.24 392.85C1604.78 392.85 1605.23 392.94 1605.77 393.03C1606.31 393.03 1606.76 392.85 1607.3 392.85C1613.42 392.85 1618.28 394.92 1621.7 399.06C1624.94 402.93 1626.56 408.06 1626.56 414.36V415.62H1623.5H1593.08C1593.17 420.57 1594.34 424.71 1596.59 427.77C1598.75 430.92 1601.81 432.54 1605.68 432.99C1611.26 432.54 1615.58 429.3 1618.46 423L1620.8 424.26C1621.07 423.81 1621.34 423.45 1621.52 423L1626.92 425.88C1622.78 434.34 1616.39 438.57 1607.57 438.57Z" fill="white"/>
<path d="M1560.05 52.7399L1533.32 1.25989H1481.03L1534.04 99.0899L1560.05 52.7399Z" fill="white"/>
<path d="M1599.92 124.83L1667.51 1.25989H1619.9L1576.07 83.4299L1538.09 150.75L1477.43 260.01H1525.85L1574.72 166.32L1620.89 260.01H1674.98L1599.92 124.83Z" fill="white"/>
<path d="M569.775 260.01V43.2H506.055V0.269958H682.905V43.2H619.095V260.01H569.775Z" fill="white"/>
<path d="M569.775 260.01V43.2H506.055V0.269958H682.905V43.2H619.095V260.01H569.775Z" fill="white"/>
<path d="M1146.23 260.01V0.269958H1198.34L1272.95 130.68C1278.62 140.76 1283.93 151.02 1288.79 161.37C1293.65 171.72 1298.15 182.16 1302.2 192.78C1300.94 185.13 1299.95 176.85 1299.41 168.12C1298.87 159.3 1298.51 149.94 1298.51 139.95V0.269958H1343.87V259.92H1298.51L1217.42 126C1213.01 118.44 1208.33 109.35 1203.38 98.82C1198.43 88.2 1193.39 76.5 1188.08 63.63C1189.25 70.74 1190.06 78.4799 1190.6 87.0299C1191.14 95.4899 1191.41 105.3 1191.41 116.46V260.01H1146.23Z" fill="white"/>
<path d="M1387.52 260.01V0.269958H1436.66V259.92H1387.52V260.01Z" fill="white"/>
<path d="M775.155 215.73V173.52V145.44H862.455V103.86H775.155V42.57L891.525 42.48V0.269958H775.155H726.465V42.57V103.68V173.52V260.01H898.995V215.73H775.155Z" fill="white"/>
<path d="M980.625 77.67V0H934.545V161.28L980.625 77.67Z" fill="white"/>
<path d="M1033.64 124.2L1101.59 0H1053.71L1009.7 82.62V82.53L980.625 134.19V133.65L934.545 217.26V260.01H980.625V219.06L1008.35 165.87L1054.79 260.01H1109.06L1033.64 124.2Z" fill="white"/>
</svg>
